<svg id="Layer_1" data-name="Layer 1" xmlns="http://www.w3.org/2000/svg" viewBox="0 0 1920 1080"><defs><style>.cls-1{fill:none;stroke:#000;stroke-miterlimit:10;stroke-width:6px;}.cls-2{font-size:149.41px;}.cls-2,.cls-3{font-family:Heebo-Light, Heebo Light;font-weight:300;}.cls-3{font-size:61.13px;}.cls-4{fill:#4d4d4d;}.cls-5{fill:#333;}.cls-6{fill:#1a1a1a;}</style></defs><rect class="cls-1" x="109.5" y="264.37" width="229.86" height="229.86" rx="35.2"/><text class="cls-2" transform="translate(160.96 431.79)">Ai</text><rect class="cls-1" x="403.73" y="264.37" width="229.86" height="229.86" rx="35.2"/><text class="cls-2" transform="translate(435.95 431.79)">Ps</text><rect class="cls-1" x="697.95" y="264.37" width="229.86" height="229.86" rx="35.2"/><text class="cls-2" transform="translate(730.17 431.79)">Ae</text><rect class="cls-1" x="992.18" y="264.37" width="229.86" height="229.86" rx="35.2"/><text class="cls-2" transform="translate(1024.4 431.79)">Xd</text><rect class="cls-1" x="1286.41" y="264.37" width="229.86" height="229.86" rx="35.2"/><text class="cls-2" transform="translate(1339.91 431.79)">Id</text><rect class="cls-1" x="1580.64" y="264.37" width="229.86" height="229.86" rx="35.2"/><text class="cls-2" transform="translate(1612.86 431.79)">Dn</text><rect class="cls-1" x="109.5" y="573.54" width="229.86" height="229.86" rx="35.2"/><text class="cls-2" transform="translate(153.26 740.96)">Pr</text><rect class="cls-1" x="403.73" y="573.54" width="229.86" height="229.86" rx="35.2"/><text class="cls-2" transform="translate(431.7 740.96)">An</text><text class="cls-3" transform="translate(721.64 796.88)">Spark AR</text><path class="cls-4" d="M897.86,650.56c.7.75.38,1.67.38,2.5,0,15.38,0,30.75,0,46.13a3.23,3.23,0,0,1-2.22,3.52q-26.19,11.65-52.32,23.47a4,4,0,0,1-3.68.21q-26.48-12-53-23.89a2,2,0,0,1-1.3-1q13.92-6.35,27.83-12.69c9.28-4.25,18.54-8.55,27.81-12.83a.3.3,0,0,0,.38-.19,3.79,3.79,0,0,0,.76-.15Z"/><path d="M786,650.56c-1.19-.44-.72-1.47-.72-2.25,0-15.55,0-31.09,0-46.64a2.9,2.9,0,0,1,2-3.14q26.38-11.85,52.72-23.83a3.76,3.76,0,0,1,3.44-.12q26.58,12,53.22,24c.39.17.74.41,1.41.79-1.82.85-3.36,1.58-4.92,2.29q-24.55,11.15-49.1,22.29a25.09,25.09,0,0,0-2.26,1.27l0,.12c-1.22-.14-2.15.62-3.16,1.07-12.14,5.47-24.32,10.84-36.38,16.46C796.75,645.37,791.06,647.35,786,650.56Z"/><path class="cls-5" d="M897.86,650.56l-55.32,25.06a3.79,3.79,0,0,1-.76.15l-.06-50.45,0-.12a16.8,16.8,0,0,1,2.22.69l52.63,23.87A12.75,12.75,0,0,1,897.86,650.56Z"/><path class="cls-6" d="M841.72,625.32l.06,50.45a.3.3,0,0,1-.38.19L788.71,652c-1-.43-1.84-1-2.75-1.48,5.1-3.21,10.79-5.19,16.22-7.71,12.06-5.62,24.24-11,36.38-16.46C839.57,625.94,840.5,625.18,841.72,625.32Z"/><path d="M1429.3,663.7c.42-14.8,7.11-26.27,18.7-35.44-.31,2.6-.67,5-.87,7.32-.92,11.07.64,21.65,6.82,31.13,6.93,10.64,16.87,17.08,29.15,20a50.08,50.08,0,0,0,27.77-1.07,1.11,1.11,0,0,1,.68,0c-9.48,12.5-21.22,21-37.69,21.56a41.41,41.41,0,0,0,14.52-1.67c10.9-3.17,19-9.93,25.37-19.18,6.69-9.79,10.47-20.68,12.44-32.27,1-5.95,1.85-11.93,3-17.85a23.07,23.07,0,0,1,5.19-11c1.62-1.83,3.58-2.93,6.15-2.41a5.4,5.4,0,0,1,3.26,2.33,23.37,23.37,0,0,1,3.87,9.29,79.76,79.76,0,0,1,1.85,23.66,58.12,58.12,0,0,1-6.76,22.32c-6.5,12.51-15.75,22.39-28.22,29.1a62.24,62.24,0,0,1-31,7.33,65.57,65.57,0,0,1-25.79-5.47,62.89,62.89,0,0,1-28-24.44,67.48,67.48,0,0,1-10.26-29.08,62.81,62.81,0,0,1,5.89-34.14A63.5,63.5,0,0,1,1478,586.7a68.21,68.21,0,0,1,23.65,1.67,22.67,22.67,0,0,1,6.23,2.68c3.46,2.22,4,6,1.55,9.4a13.28,13.28,0,0,1-7.46,5c-3.68,1-7.44,1.81-11.21,2.51-10.09,1.89-20.1,4.06-29.45,8.5s-17.85,10.56-24.12,19.16A41.37,41.37,0,0,0,1429.3,663.7Z"/><path d="M1513.17,599.31c9.85,4.68,16.81,12,21.58,21.61-6.21,4.75-7.9,11.55-9,18.63-1.4,9.16-2.47,18.37-5.47,27.2a71,71,0,0,1-5.71,12.52,5.55,5.55,0,0,1-2.45,2.25,40.25,40.25,0,0,1-16.56,4.13c-8.07.39-15.48-1.94-22.47-5.68-10.09-5.38-17.4-13.27-21.1-24.23a44,44,0,0,1-1.67-21.93c.45-2.61,1.09-5.19,1.74-7.76a3.21,3.21,0,0,1,1-1.55,49.74,49.74,0,0,1,13.26-7.2c8.37-3.32,17.11-5.22,25.93-6.85,2.72-.51,5.43-1.1,8.11-1.78C1505.86,607.29,1510.66,605,1513.17,599.31Z"/><path d="M1411.88,742.11c1.29,17.67,2.57,35.22,3.86,52.85h-13.61q-.57-9.51-1.16-19l-.23,0c-.87,2.11-1.73,4.23-2.59,6.34-1.63,4-3.28,8-4.88,12a1.26,1.26,0,0,1-1.41,1c-3.58,0-7.15,0-10.73,0-.76,0-1.1-.14-1.28-1-1.25-6.1-2.58-12.18-3.94-18.51a5.23,5.23,0,0,0-.35.79c-3,11.48-6.12,23-9.12,34.46-.29,1.12-.77,1.4-1.85,1.38-4.29-.05-8.58,0-13.12,0,5.93-23.53,11.81-46.83,17.71-70.21,3.9,0,7.73,0,11.57,0,.26,0,.67.53.74.87q2.1,9.69,4.14,19.38l1.83,8.69a7.81,7.81,0,0,0,.28.76c.48-1.26.88-2.29,1.28-3.33q4.77-12.69,9.52-25.39a1.35,1.35,0,0,1,1.55-1C1404,742.13,1407.84,742.11,1411.88,742.11Z"/><path d="M1574.22,742c4.16,0,8.19,0,12.21,0,.34,0,.79.5,1,.86,3.28,6.94,6.52,13.89,9.78,20.83a14.05,14.05,0,0,0,1.54,2.72q2.16-19.73,4.32-39.48h14.27c-2.39,22.65-4.77,45.24-7.17,68h-2.62c-2.7,0-5.4,0-8.1,0a1.44,1.44,0,0,1-1.52-1q-5.76-12.2-11.57-24.38c-.16-.32-.33-.64-.66-1.25-.37,2.85-.71,5.35-1,7.86-.77,6-1.52,12-2.33,18,0,.28-.45.74-.69.74-4.34,0-8.67,0-13,0a1.34,1.34,0,0,1-.37-.14C1570.23,777.19,1572.21,759.65,1574.22,742Z"/><path d="M1538.88,795.31a27.94,27.94,0,1,1,27.94-27.66A27.91,27.91,0,0,1,1538.88,795.31Zm-16-28a16,16,0,1,0,16.25-15.86C1530.33,751.18,1523.17,758.17,1522.9,767.29Z"/><path d="M1459.83,792.29c-2-3.74-3.84-7.25-5.69-10.78-1.09-2.1-1.08-2.12-3.32-1.51-5.28,1.43-10.55,2.89-15.83,4.29a1.26,1.26,0,0,0-1.09,1.2c-.39,2.43-.83,4.86-1.3,7.29-.06.33-.36.83-.64.9-4.5,1.05-9,2.05-13.74,3.1.36-1.87.69-3.6,1-5.32q5.22-26.31,10.43-52.61a1.41,1.41,0,0,1,1.18-1.28q6-1.61,12-3.33a1,1,0,0,1,1.44.57q12.29,22.19,24.62,44.34a1.32,1.32,0,0,1,.11,1.1C1466,784.23,1463,788.18,1459.83,792.29Zm-20-39.3-.26.09c-1.25,7.07-2.5,14.14-3.79,21.4l12.71-4.42Z"/><path d="M1497.21,767.65,1515,794.81c-.52,0-.87.09-1.22.09-4.64,0-9.28,0-13.92,0a1.54,1.54,0,0,1-1.52-.9c-2.8-4.7-5.63-9.37-8.46-14.06-.19-.31-.41-.62-.68-1-2.35,3.17-4.64,6.24-6.93,9.31-1.49,2-3,4-4.5,6a1.48,1.48,0,0,1-1,.6c-4.85,0-9.71,0-14.74,0,.25-.4.41-.69.6-.95q9.15-12.59,18.34-25.15a1.89,1.89,0,0,0,.11-2.56c-5.08-7.94-10.08-15.92-15.11-23.89-.2-.32-.37-.64-.62-1.07.4,0,.69-.07,1-.07,4.56,0,9.13,0,13.69,0a1.54,1.54,0,0,1,1.54.84c2.76,4.42,5.55,8.82,8.33,13.22.2.31.41.6.69,1l6.2-8.72c1.34-1.89,2.66-3.79,4-5.65a1.65,1.65,0,0,1,1-.66c4.87,0,9.74,0,14.61,0,.06,0,.12.06.31.15Z"/><path d="M1205.4,651.9a1.41,1.41,0,0,1-.1-1.53c2.13-4.41,4.22-8.85,6.32-13.28,2-4.23,2-3.31.45-7.69q-8.76-25.14-17.53-50.27a3.38,3.38,0,0,0-4.45-2.4q-26.85,6.54-53.71,13.07a4,4,0,0,0-3,2.61c-1.71,4.36-3.51,8.69-5.2,13.05a1.35,1.35,0,0,1-1.56,1c-2.67-.05-5.34,0-8,0s-5.22,0-7.82,0a4.48,4.48,0,0,0-3.68,1.6c-4.8,5.28-9.66,10.51-14.51,15.75q-12.35,13.38-24.68,26.76c-1.61,1.75-1.51,3.51.2,5.14l15.69,15q12.84,12.24,25.67,24.49a3.78,3.78,0,0,0,2.77,1.09c5.9,0,11.79,0,17.69,0a1.38,1.38,0,0,1,1.56,1c1.71,4.39,3.51,8.76,5.22,13.15a3.74,3.74,0,0,0,3.06,2.52l14.4,2.46,42.75,7.35c2.52.43,4-.53,4.52-3q5.76-26.46,11.55-52.92a4.27,4.27,0,0,0-.56-3.37C1210.07,659.59,1207.76,655.73,1205.4,651.9Zm-16.77,32.27c-.06.27-.14.53-.24.92a4.45,4.45,0,0,1-.45-.48q-10.25-15.61-20.45-31.24a1.38,1.38,0,0,1-.06-1.14q8.94-18,17.93-35.88c.12-.24.27-.47.49-.86.61,2,1.17,3.8,1.74,5.63q4.26,13.88,8.5,27.76a4,4,0,0,1,.07,2Q1192.43,667.53,1188.63,684.17Zm-57.24-70.92a1.91,1.91,0,0,1,.92-.54l34.28-7.93a3.08,3.08,0,0,1,.45,0l-3.57,7.16q-7.52,15-15,30.07a1.65,1.65,0,0,1-1.76,1.08q-20.76,0-41.54,0h-.76a4.09,4.09,0,0,1,.34-.54Q1118.05,627.88,1131.39,613.25Zm4.38,76.75a3.39,3.39,0,0,1-1.6-.81Q1123,679.11,1111.91,669l-6.54-5.94h41.9a1.5,1.5,0,0,1,1.44.73q10.65,15.94,21.34,31.87c.13.2.25.42.45.74a5.25,5.25,0,0,1-.78,0Q1152.74,693.19,1135.77,690Z"/><path d="M1208.79,798.5c-3.5,1-4.14-1-4.87-3.36-3.83-12.4-7.78-24.77-11.84-37.63,3.42,0,6.65-.07,9.87.09.44,0,1,1.21,1.22,1.95,2.66,8.71,5.26,17.43,7.89,26.15.23.78.55,1.53,1,2.9l5.41-17.71c1.18-3.87,2.4-7.73,3.5-11.62a2.1,2.1,0,0,1,2.44-1.86c2.75.12,5.51,0,8.6,0-1.81,5.72-3.47,11.09-5.2,16.43-4.2,13-8.46,26-12.6,39-.61,1.9-1.42,2.76-3.53,2.55s-4.49,0-7.08,0C1205.39,809.68,1207,804.33,1208.79,798.5Z"/><path d="M1095.69,757.62h10.12v40.84h-7.7l-1.06-3c-.69.23-1.28.48-1.89.63-4.72,1.16-9.39,2.72-14.19,3.32-5.2.66-8.44-2.29-9.37-7.45a14.33,14.33,0,0,1-.35-2.5c0-10.54,0-21.08,0-32,3.08,0,6.09-.09,9.08.1.43,0,1.09,1.47,1.1,2.26.08,8.26,0,16.53.06,24.8,0,4.72,1.21,5.67,5.84,4.64l.25,0c7.87-1.8,8.12-2.11,8.12-10q0-9.5,0-19Z"/><path d="M1111.3,757.46a35,35,0,0,1,6.58.13c.95.18,1.63,1.73,2.49,2.72l11.42-3.25.49-.12c9.14-1.67,13.57,1.92,13.64,11.18.07,10,0,20.08,0,30.34h-10.22v-3.7c0-7.85,0-15.69,0-23.54,0-4.29-1.21-5.26-5.41-4.49l-.25,0c-8,1.57-8.66,2.33-8.65,10.35q0,9.24,0,18.48v2.91H1111.3Z"/><path d="M1169,765.69l-6.06-.28v-7.79l5.95-.31V747.23l10.38-1.47V757.4h10.55c-.16,2.45-.19,4.62-.54,6.74a2.48,2.48,0,0,1-1.86,1.36c-2.59.16-5.2.06-8.1.06v14.31c0,2.36,0,4.73,0,7.09.06,3,1.51,4.29,4.5,4,1.4-.14,2.8-.41,4.4-.64.38,2.53.73,4.92,1.13,7.6-5.25,1.65-10.37,2.55-15.53.24a7.48,7.48,0,0,1-4.44-6.36c-.32-3.09-.34-6.22-.37-9.34C1168.94,776.91,1169,771.36,1169,765.69Z"/><path d="M1149.9,798.46V757.68H1160v40.78Z"/><path d="M1160,739.73v11.75c-3,0-6,0-9-.05a1.52,1.52,0,0,1-1.06-1c-.08-3.51,0-7,0-10.66Z"/></svg>